<svg xmlns="http://www.w3.org/2000/svg" width="50" height="50"><path d="M25 0v4.2a4.2 4.2 0 0 0 0 1v3a16.7 16.7 0 0 1 2.6.4A4.2 4.2 0 0 0 29 9a16.7 16.7 0 0 1 .4 0 16.7 16.7 0 0 1-.6 32.2 16.7 16.7 0 0 1-1.6.3 16.7 16.7 0 0 1-.4 0 16.7 16.7 0 0 1-1.2.2 16.7 16.7 0 0 1-.8 0 16.7 16.7 0 0 1-.8 0 16.7 16.7 0 0 1-1.2-.2 16.7 16.7 0 0 1-.4 0 16.7 16.7 0 0 1-2.2-.6A16.7 16.7 0 0 1 8.4 23.2a4.2 4.2 0 0 0-3-5.5 4.2 4.2 0 0 0-5 2.5 25 25 0 0 0 22 29.4 25 25 0 0 0 .6 0 25 25 0 0 0 1.8 0 25 25 0 0 0 1.4 0 25 25 0 0 0 1 0 25 25 0 0 0 2-.4 25 25 0 0 0 .2 0A25 25 0 0 0 25 0z"><animateTransform attributeType="xml" attributeName="transform" type="rotate" from="0 25 25" to="360 25 25" dur="6s" repeatCount="indefinite"/></path></svg>